<svg width="29" height="29" viewBox="0 0 29 29" fill="none" xmlns="http://www.w3.org/2000/svg">
<path d="M14.499 2.71875C9.99609 2.71875 6.34277 6.19592 6.34277 10.4785C6.34277 15.4063 11.7803 23.2153 13.7769 25.9125C13.8597 26.0264 13.9684 26.119 14.0939 26.1829C14.2194 26.2468 14.3582 26.2801 14.499 26.2801C14.6398 26.2801 14.7787 26.2468 14.9042 26.1829C15.0297 26.119 15.1383 26.0264 15.2212 25.9125C17.2178 23.2164 22.6553 15.4102 22.6553 10.4785C22.6553 6.19592 19.002 2.71875 14.499 2.71875Z" stroke="black" stroke-width="1.00189" stroke-linecap="round" stroke-linejoin="round"/>
<path d="M14.502 13.598C16.0046 13.598 17.2228 12.3799 17.2228 10.8772C17.2228 9.37462 16.0046 8.15649 14.502 8.15649C12.9994 8.15649 11.7812 9.37462 11.7812 10.8772C11.7812 12.3799 12.9994 13.598 14.502 13.598Z" stroke="black" stroke-width="1.00189" stroke-linecap="round" stroke-linejoin="round"/>
</svg>
