<svg width="21" height="21" viewBox="0 0 21 21" fill="none" xmlns="http://www.w3.org/2000/svg">
<path d="M19.26 15.801C18.5467 15.0822 16.819 14.0333 15.9807 13.6106C14.8891 13.0608 14.7993 13.0158 13.9413 13.6533C13.369 14.0787 12.9885 14.4587 12.3187 14.3159C11.6489 14.173 10.1934 13.3676 8.919 12.0972C7.64457 10.8268 6.7924 9.3291 6.6491 8.66156C6.5058 7.99402 6.89213 7.61802 7.3135 7.04437C7.90736 6.23577 7.86244 6.10101 7.35483 5.00941C6.95906 4.16038 5.87959 2.44886 5.15815 1.73909C4.38639 0.97677 4.38639 1.11154 3.8891 1.31818C3.48426 1.48851 3.09586 1.69557 2.72877 1.93675C2.01002 2.41427 1.61112 2.81093 1.33215 3.40704C1.05319 4.00316 0.927855 5.40068 2.3685 8.01783C3.80914 10.635 4.81988 11.9732 6.9119 14.0594C9.00391 16.1455 10.6126 17.2672 12.9642 18.5861C15.8734 20.2155 16.9892 19.8979 17.5871 19.6194C18.185 19.3408 18.5835 18.9455 19.0619 18.2268C19.3037 17.8603 19.5112 17.4723 19.6818 17.0678C19.8889 16.5723 20.0237 16.5723 19.26 15.801Z" stroke="black" stroke-width="1.00189" stroke-miterlimit="10"/>
</svg>
